<?xml version="1.0" standalone="no"?>
<!DOCTYPE svg PUBLIC "-//W3C//DTD SVG 20010904//EN"
 "http://www.w3.org/TR/2001/REC-SVG-20010904/DTD/svg10.dtd">
<svg version="1.0" xmlns="http://www.w3.org/2000/svg"
 width="270.000000pt" height="270.000000pt" viewBox="0 0 270.000000 270.000000"
 preserveAspectRatio="xMidYMid meet">
<metadata>
Created by potrace 1.11, written by Peter Selinger 2001-2013
</metadata>
<g transform="translate(0.000000,270.000000) scale(0.100000,-0.100000)"
fill="#000000" stroke="none">
<path d="M1688 2601 c-11 -11 -14 -21 -8 -31 5 -8 5 -19 0 -25 -5 -6 -5 -17 0
-25 5 -8 5 -21 -1 -32 -7 -13 -6 -18 3 -18 8 0 9 -3 3 -8 -13 -9 -18 -32 -7
-32 4 0 9 -14 10 -31 2 -22 -1 -29 -10 -24 -7 4 -5 0 5 -8 16 -13 16 -15 1
-21 -13 -5 -14 -9 -4 -21 10 -12 10 -18 -1 -32 -11 -13 -11 -15 -1 -9 16 10
13 -25 -3 -36 -6 -5 -5 -8 4 -8 7 0 11 -6 7 -15 -3 -8 0 -15 7 -15 8 0 6 -4
-3 -10 -9 -6 -10 -10 -3 -10 8 0 9 -9 3 -29 -4 -16 -6 -32 -3 -35 8 -8 9 -76
0 -76 -4 0 -4 -8 1 -17 4 -10 8 -67 7 -128 0 -60 3 -113 8 -116 6 -4 6 -13 1
-20 -12 -20 -14 -39 -3 -39 5 0 4 -12 -2 -27 -7 -19 -6 -28 2 -34 7 -4 8 -12
3 -20 -11 -18 -14 -39 -6 -39 12 0 10 -65 -2 -72 -8 -5 -7 -8 2 -8 7 0 11 -4
7 -9 -3 -5 -1 -13 5 -16 8 -5 7 -11 -1 -21 -6 -8 -8 -14 -4 -14 4 0 1 -8 -6
-17 -12 -15 -12 -16 4 -10 12 4 16 3 11 -4 -8 -13 -12 -69 -5 -69 3 0 6 -84 6
-188 -1 -103 3 -195 7 -204 5 -10 3 -18 -5 -21 -9 -4 -9 -6 1 -6 9 -1 10 -6 2
-20 -7 -14 -6 -21 3 -24 9 -4 9 -8 -2 -15 -9 -7 -10 -12 -2 -16 7 -5 8 -13 2
-24 -5 -9 -5 -26 -1 -37 4 -11 5 -27 1 -35 -4 -8 -6 -28 -5 -43 0 -15 -3 -30
-8 -33 -4 -3 -5 -11 -1 -17 14 -22 11 -37 -5 -38 -11 0 -12 -2 -4 -6 15 -6 16
-33 1 -33 -6 0 -8 -7 -5 -16 3 -8 -1 -29 -9 -45 -9 -16 -13 -34 -10 -39 3 -6
-1 -10 -10 -10 -9 0 -14 -4 -10 -9 3 -6 -3 -14 -12 -20 -10 -6 -14 -11 -9 -11
6 0 -4 -11 -22 -23 -17 -13 -28 -28 -24 -32 4 -5 -1 -5 -10 -2 -12 4 -18 1
-18 -9 0 -8 -5 -12 -10 -9 -6 4 -16 2 -23 -4 -15 -12 -86 -30 -139 -35 -20 -3
-42 -7 -48 -11 -5 -3 -10 -2 -10 2 0 5 -23 8 -50 7 -28 0 -53 3 -56 8 -3 5
-10 6 -15 3 -5 -4 -9 -2 -9 3 0 5 -11 8 -25 7 -13 -2 -29 3 -36 11 -6 8 -18
14 -25 14 -8 0 -19 9 -26 20 -7 11 -18 20 -25 20 -7 0 -13 6 -13 13 0 7 -9 19
-19 27 -11 7 -17 18 -14 23 3 5 -1 13 -8 18 -8 4 -14 14 -15 21 0 7 -2 21 -2
31 -1 10 -6 16 -10 13 -5 -3 -9 9 -10 27 -2 33 -8 78 -12 87 -7 15 -4 37 10
53 8 10 10 18 5 17 -21 -5 -25 1 -16 19 6 10 7 21 4 25 -12 12 -12 36 0 36 8
0 8 3 2 8 -14 9 -14 45 0 54 12 9 17 8 -93 11 -45 1 -82 -1 -82 -5 0 -4 -13
-3 -29 2 -23 6 -31 5 -35 -7 -4 -10 -10 -12 -19 -6 -18 14 -55 14 -64 0 -13
-20 -12 -78 1 -70 6 4 5 -1 -3 -11 -12 -15 -13 -19 -1 -26 10 -6 11 -12 3 -22
-14 -16 -14 -29 -1 -46 8 -8 7 -12 -3 -12 -12 0 -12 -2 0 -9 9 -6 10 -10 2
-16 -9 -5 -9 -10 0 -21 9 -11 8 -14 -2 -14 -10 0 -11 -2 -2 -8 6 -4 13 -31 14
-60 2 -29 6 -55 10 -58 5 -2 5 -12 2 -21 -4 -11 -2 -14 5 -9 7 4 10 -1 7 -14
-2 -11 2 -32 10 -47 8 -15 12 -30 9 -35 -3 -4 0 -8 5 -8 6 0 11 -6 11 -14 0
-21 26 -67 33 -59 4 3 7 -1 7 -10 0 -10 9 -25 20 -34 11 -10 20 -23 20 -30 0
-7 6 -13 13 -13 7 0 18 -9 25 -20 7 -11 17 -20 23 -20 7 0 20 -10 30 -22 11
-11 19 -18 19 -14 0 3 24 -6 53 -20 84 -43 101 -50 122 -49 11 0 22 -3 25 -7
3 -4 23 -9 45 -12 22 -2 40 -5 40 -6 0 -1 10 -3 23 -4 12 -2 22 2 22 8 0 6 4
5 9 -3 5 -7 13 -11 19 -7 6 3 13 2 17 -3 3 -6 15 -7 29 -1 15 5 27 5 35 -3 8
-8 11 -8 11 2 0 7 5 9 10 6 6 -4 16 -2 23 4 8 6 18 6 27 1 8 -5 21 -5 29 -1 9
4 28 7 44 6 15 0 27 3 27 8 0 5 8 3 17 -4 11 -10 14 -10 9 -2 -4 7 -4 13 1 14
42 3 67 10 81 21 13 11 14 11 7 -2 -7 -12 -6 -13 7 -3 8 7 18 10 21 6 4 -3 7
-1 7 5 0 7 3 11 8 10 14 -5 127 57 155 84 16 16 33 26 38 22 5 -3 8 0 7 8 -2
7 3 12 10 10 6 -1 11 1 10 5 -2 7 14 30 52 73 8 9 16 23 18 31 2 8 8 16 13 17
5 2 9 12 9 22 0 10 5 20 11 22 7 2 13 19 16 38 2 19 7 36 12 39 4 4 9 13 9 21
3 27 10 75 12 80 1 3 2 9 1 14 -1 4 4 15 11 24 10 12 10 14 1 8 -7 -4 -13 -2
-13 3 0 6 4 11 9 11 11 0 7 578 -4 604 -6 14 -5 17 4 11 10 -6 11 -3 2 12 -6
11 -8 23 -4 26 3 4 0 13 -7 22 -11 13 -10 14 5 9 15 -6 16 -4 6 14 -9 17 -9
22 1 22 9 0 9 3 -2 10 -12 8 -12 10 -1 10 10 0 11 3 2 13 -6 8 -8 17 -4 21 4
4 1 11 -7 16 -8 6 -10 10 -4 10 6 0 11 7 11 15 0 8 -4 15 -9 15 -5 0 -4 9 2
20 8 15 8 20 -2 20 -8 0 -9 3 -3 8 14 10 17 32 4 32 -8 0 -8 4 0 14 9 11 9 15
-1 19 -10 4 -10 6 1 6 11 1 11 4 1 16 -9 11 -9 15 -1 15 7 0 9 5 4 13 -11 17
-11 158 0 181 7 14 6 16 -4 11 -9 -6 -11 -3 -6 8 4 10 1 17 -6 17 -7 0 -8 3
-2 8 13 9 18 55 6 47 -6 -3 -7 6 -2 22 9 34 8 44 -2 61 -5 7 -4 12 3 12 6 0 9
4 6 8 -3 5 -6 25 -8 45 -1 21 -7 37 -13 37 -5 0 -3 5 6 10 11 6 14 19 11 39
-2 17 -8 28 -13 25 -5 -3 -6 2 -3 10 3 9 11 13 17 9 6 -4 7 -1 1 8 -5 8 -7 22
-5 33 2 13 -1 16 -11 10 -10 -6 -10 -4 1 9 9 12 10 17 2 17 -9 0 -9 5 -1 20 6
11 7 20 2 20 -4 0 -8 9 -8 20 0 11 4 20 8 20 5 0 4 8 -1 18 -6 11 -6 24 1 36
6 10 6 21 2 25 -5 3 -9 40 -9 81 1 116 14 106 -151 106 -89 -1 -144 -5 -144
-11 0 -6 -3 -5 -8 1 -5 8 -12 6 -24 -5z"/>
</g>
</svg>
